<svg width="265" height="180" xmlns="http://www.w3.org/2000/svg" role="img" aria-labelledby="title desc" version="1.1" stroke="null">
 <title id="title" stroke="null">SQ TechWorks</title>
 <desc id="desc" stroke="null">SQ TechWorks — Technology Solutions That Work</desc>
 <defs id="defs5" stroke="null">
  <linearGradient id="blue" x1="1.5" y1="0" x2="0.5" y2="0.5" stroke="null">
   <stop offset="0.9" stop-color="#5495fdf1" id="stop1" stroke="null"/>
   <stop offset="10" stop-color="#186cf4ff" id="stop2" stroke="null"/>
   <stop offset="1" stop-color="#2563EB" id="stop3" stroke="null"/>
  </linearGradient>
  <linearGradient id="white" x1="0" y1="0" x2="0.8" y2="1" stroke="null">
   <stop offset="0.2" stop-color="#f9f3f3ff" id="stop4" stroke="null"/>
   <stop offset="1.5" stop-color="#7a87f9ff" id="stop5" stroke="null"/>
  </linearGradient>
  <radialGradient spreadMethod="pad" id="svg_2">
   <stop offset="0" stop-opacity="0.99609" stop-color="#ffffff"/>
   <stop offset="1" stop-opacity="0.99609" stop-color="#ffffff"/>
  </radialGradient>
 </defs>
 <!-- SQ mark -->
 <!-- Seperator -->
 <!-- wordmark -->
 <!-- tagline -->
 <!-- Ending Line -->
 <g stroke="null">
  <title stroke="null">Layer 1</title>
  <g id="g15" stroke="null">
   <!-- stylized S -->
   <path fill="url(#blue)" d="m6.06952,84.44639c0.26089,-21.44841 14.74958,-36.87333 40.0977,-36.565l75.39443,0.91708l-2.84489,20.11689l-67.595,-0.82221c-12.34909,-0.15021 -19.5539,4.31249 -19.64877,12.11191c-0.07906,6.49952 6.38093,9.82834 17.43011,9.96274l51.3462,0.62456c20.75893,3.50275 40.79676,12.84716 40.55168,32.99567c-0.27671,22.74832 -16.72315,38.79947 -43.37118,38.47533l-85.14371,-1.03567l17.79378,-19.93505l65.64515,0.79849c12.34909,0.15021 19.54599,-3.66254 19.64086,-11.46196c0.08696,-7.14947 -6.37303,-10.47829 -18.07216,-10.6206l-50.0463,-0.60875c-27.29798,-0.33205 -41.45462,-12.20511 -41.17791,-34.95343l0.00001,0z" id="path5" stroke="null"/>
   <!-- Q ring -->
   <path fill="url(#white)" fill-rule="evenodd" d="m136.51054,48.9803c35.74736,0.43482 62.09496,25.45714 61.69176,58.60469c-0.4032,33.14755 -25.37808,55.59544 -60.47549,55.16853c-35.09741,-0.42692 -59.51887,-23.47566 -59.11567,-56.62321c0.4032,-33.14755 25.4018,-57.5453 57.89939,-57.15001l0.00001,0zm-0.28461,23.39827c-19.49856,-0.23718 -33.95562,12.58793 -34.21651,34.03635c-0.26089,21.44841 13.88784,33.97143 35.9862,34.24023c22.09837,0.2688 36.54752,-11.90636 36.80841,-33.35477c0.26089,-21.44841 -13.87993,-34.62138 -38.57811,-34.92181l0.00001,0z" id="path6" stroke="null"/>
   <!-- Q tail -->
   <path fill="url(#blue)" d="m148.0137,118.67537l58.48153,55.3154l-29.24784,-0.35576l-46.27475,-43.46605l17.04106,-11.49358l0,-0.00001z" id="path7" stroke="null"/>
   <!-- digital pixels -->
   <!-- <g transform="matrix(0.649952 0.00790587 -0.00790587 0.649952 165.631 68.3067)" id="g14"> -->
   <!-- First digital pixels -->
   <!-- Secon digital pixels done -->
   <rect x="164.04486" y="-48.36059" width="18" height="18" rx="1.5" fill="#4582e3ff" id="rect8" stroke="null"/>
   <!-- Third digital pixels done -->
   <rect x="211.04486" y="-81.36059" width="11" height="11" rx="1.5" fill="#6da5f9ff" id="rect8" stroke="null"/>
   <!-- Fourth digital pixels done-->
   <!-- Fiffth digital pixels done-->
   <!-- Sixth digital pixels done -->
   <rect x="161.04486" y="-83.36059" width="15" height="15" rx="1.5" fill="#06B6D4" id="rect10" stroke="null"/>
   <!-- Seventh digital pixels -->
   <!-- Eighth digital pixels -->
   <rect x="126.04486" y="-66.36059" width="14" height="14" rx="1.5" fill="#c7d3edff" id="rect11" stroke="null"/>
   <!-- Ninth digital pixels done -->
   <!-- Tenth digital pixels done -->
   <!-- Eleventh digital pixels done -->
   <rect x="201.04486" y="-40.36059" width="10" height="10" rx="1.5" fill="#06B6D4" id="rect14" stroke="null"/>
   <!-- </g> -->
  </g>
  <path fill="#0000ff" d="m156.86063,63.86313l5.77314,0l1.78394,-6.5521l1.78395,6.5521l5.77314,0l-4.67056,4.04937l1.78404,6.5521l-4.67057,-4.04948l-4.67056,4.04948l1.78404,-6.5521l-4.67056,-4.04937z" id="svg_20" stroke-width="0" stroke="#1202f2"/>
  <path fill="#0000ff" d="m135.15094,55.70763l5.77314,0l1.78394,-6.55209l1.78395,6.55209l5.77314,0l-4.67056,4.04938l1.78404,6.5521l-4.67057,-4.04949l-4.67056,4.04949l1.78404,-6.5521l-4.67056,-4.04938z" id="svg_21" stroke-width="0" stroke="#1202f2"/>
  <path fill="#0000ff" d="m172.21038,82.81603l5.77314,0l1.78394,-6.55209l1.78395,6.55209l5.77314,0l-4.67056,4.04938l1.78404,6.5521l-4.67057,-4.04949l-4.67056,4.04949l1.78404,-6.5521l-4.67056,-4.04938z" id="svg_22" stroke-width="0" stroke="#1202f2"/>
  <path fill="#0000ff" d="m177.72394,110.04535l5.77314,0l1.78395,-6.5521l1.78394,6.5521l5.77314,0l-4.67056,4.04937l1.78404,6.5521l-4.67056,-4.04949l-4.67056,4.04949l1.78403,-6.5521l-4.67056,-4.04937z" id="svg_23" stroke-width="0" stroke="#1202f2"/>
  <path fill="#ffffff" d="m155.89939,37.15262l7.14713,0l2.20851,-7.65128l2.20852,7.65128l7.14713,0l-5.78214,4.7287l2.20863,7.65129l-5.78214,-4.72883l-5.78214,4.72883l2.20864,-7.65129l-5.78214,-4.7287z" id="svg_24" stroke-width="0" stroke="#1202f2"/>
  <path transform="rotate(7.7272 194.881 58.8295)" fill="#ffffff" d="m185.02421,56.22423l7.53028,0l2.32692,-8.43123l2.32692,8.43123l7.53028,0l-6.09211,5.21073l2.32703,8.43125l-6.09211,-5.21088l-6.09211,5.21088l2.32704,-8.43125l-6.09212,-5.21073l-0.00002,0z" id="svg_25" stroke-width="0" stroke="#1202f2"/>
  <path fill="#fcfcfc" d="m199.67545,90.29331l7.14713,0l2.20852,-7.65128l2.20852,7.65128l7.14713,0l-5.78214,4.7287l2.20863,7.65129l-5.78214,-4.72883l-5.78214,4.72883l2.20864,-7.65129l-5.78215,-4.7287z" id="svg_26" stroke-width="0" stroke="#ffffff"/>
  <path fill="#79d1f2" d="m195.17798,18.70794l8.36392,0l2.58451,-9.85925l2.58452,9.85925l8.36392,0l-6.76654,6.09329l2.58465,9.85926l-6.76655,-6.09345l-6.76654,6.09345l2.58465,-9.85926l-6.76654,-6.09329z" id="svg_27" stroke-width="0" stroke="#1202f2"/>
  <path transform="rotate(-26.7141 245.796 17.0257)" fill="#ffffff" d="m232.0911,13.74176l10.47002,0l3.23532,-10.62716l3.23532,10.62716l10.47002,0l-8.47041,6.56786l3.23548,10.62716l-8.47041,-6.56805l-8.47041,6.56805l3.23548,-10.62716l-8.47041,-6.56786z" id="svg_28" stroke-width="0" stroke="#ffffff"/>
  <path fill="#76d3ed" d="m223.67038,52.42045l8.53071,0l2.63606,-9.35886l2.63606,9.35886l8.53071,0l-6.90148,5.78402l2.63619,9.35886l-6.90148,-5.78419l-6.90148,5.78419l2.63619,-9.35886l-6.90148,-5.78402z" id="svg_53" stroke-width="0" stroke="#1202f2"/>
  <path id="svg_1" d="m520.74958,317.97957l0.56913,0l0.17587,-0.54067l0.17587,0.54067l0.56913,0l-0.46044,0.33415l0.17588,0.54067l-0.46044,-0.33416l-0.46044,0.33416l0.17588,-0.54067l-0.46044,-0.33415z" stroke-width="0" stroke="#ffffff" fill="url(#svg_2)"/>
  <path id="svg_3" d="m324.25797,322.99638l0.56913,0l0.17587,-0.54067l0.17587,0.54067l0.56913,0l-0.46044,0.33415l0.17588,0.54067l-0.46044,-0.33416l-0.46044,0.33416l0.17588,-0.54067l-0.46044,-0.33415z" stroke-width="0" stroke="#ffffff" fill="url(#svg_2)"/>
  <path id="svg_4" d="m291.64874,361.45856l0.56913,0l0.17587,-0.54067l0.17587,0.54067l0.56913,0l-0.46044,0.33415l0.17588,0.54067l-0.46044,-0.33416l-0.46044,0.33416l0.17588,-0.54067l-0.46044,-0.33415z" stroke-width="0" stroke="#ffffff" fill="url(#svg_2)"/>
  <path stroke="#ffffff" id="svg_5" d="m209.52687,93.28209l0.56913,0l0.17587,-0.54067l0.17587,0.54067l0.56913,0l-0.46044,0.33415l0.17588,0.54067l-0.46044,-0.33416l-0.46044,0.33416l0.17588,-0.54067l-0.46044,-0.33415z" stroke-width="0" fill="url(#svg_2)"/>
 </g>
</svg>